# xmcd
#
# Track frame offsets:
#	150
#	17176
#	32601
#	44980
#	62517
#
# Disc length: 996 seconds
#
# Revision: 0
# Processed by: cddbd v1.5.2PL0 Copyright (c) Steve Scherf et al.
# Submitted via: audiograbber 1.83.01
#
DISCID=3f03e205
DTITLE=Various Artist - CDX 674
DYEAR=2019
DGENRE=Country
TTITLE0=Aaron Goodvin - Bars and Churches
TTITLE1=Art Carter - 20 Minute Train
TTITLE2=Rebel Hearts - 60 Years Ago
TTITLE3=Michael Zaib - Broken Hearts Should Be A Crime
TTITLE4=Robbie Robinson - Yeah That's Me
EXTD=
EXTT0=
EXTT1=
EXTT2=
EXTT3=
EXTT4=
PLAYORDER=
